<mxfile host="65bd71144e">
    <diagram id="Ngkt_RE7BkTY8LYu2mqX" name="PÃ¡gina-1">
        <mxGraphModel dx="644" dy="513" grid="1" gridSize="10" guides="1" tooltips="1" connect="1" arrows="1" fold="1" page="1" pageScale="1" pageWidth="1169" pageHeight="827" background="#ffffff" math="0" shadow="0">
            <root>
                <mxCell id="0"/>
                <mxCell id="1" parent="0"/>
            </root>
        </mxGraphModel>
    </diagram>
</mxfile>